<svg width="273" height="273" viewBox="0 0 273 273" fill="none" xmlns="http://www.w3.org/2000/svg">
<rect width="272.547" height="272.547" fill="#141414"/>
<path d="M133.816 208.852C94.2238 219.461 53.5272 195.966 42.9184 156.373L42.9182 156.372L93.6717 142.773L93.672 142.774C100.525 168.351 126.815 183.53 152.393 176.676C177.97 169.823 193.148 143.533 186.295 117.956C196.904 157.548 173.408 198.243 133.816 208.852Z" fill="white"/>
<path d="M137.937 57.4608C175.764 47.3253 214.644 69.773 224.779 107.599C224.783 107.613 224.787 107.627 224.791 107.642L186.326 117.948C179.469 92.3609 153.168 77.1768 127.581 84.0329C104.919 90.1054 90.4181 111.43 92.162 134.003L86.0419 135.643C81.1779 100.714 102.996 66.8235 137.937 57.4608Z" fill="white"/>
<path d="M135.872 105.172C138.874 116.374 150.389 123.024 161.592 120.022L167.452 118.452L168.268 121.498L162.408 123.068C151.205 126.069 144.557 137.584 147.559 148.786L150.498 159.757L147.389 160.59L146.706 158.042C143.705 146.839 132.189 140.191 120.987 143.193L115.119 144.765L114.219 141.403L120.086 139.831C131.288 136.829 137.937 125.314 134.935 114.111L131.935 102.915L135.044 102.081L135.872 105.172Z" fill="white"/>
</svg>
