<svg width="943" height="189" viewBox="0 0 943 189" fill="none" xmlns="http://www.w3.org/2000/svg">
<path d="M109.261 169.743C69.6691 180.352 28.9725 156.856 18.3637 117.264L18.3635 117.263L69.117 103.664L69.1173 103.665C75.9707 129.242 102.261 144.42 127.838 137.567C153.415 130.714 168.594 104.423 161.74 78.8463C172.349 118.438 148.853 159.134 109.261 169.743Z" fill="black"/>
<path d="M113.383 18.3514C151.209 8.21593 190.089 30.6636 200.225 68.4897C200.229 68.5041 200.233 68.5186 200.236 68.5331L161.772 78.8396L161.772 78.8386C154.916 53.2514 128.615 38.0672 103.027 44.9233C80.3649 50.9958 65.8642 72.3211 67.6085 94.8947L61.4875 96.5348C56.6229 61.6047 78.4412 27.7141 113.383 18.3514Z" fill="black"/>
<path d="M111.318 66.063C114.32 77.2658 125.835 83.914 137.038 80.9122L142.897 79.3424L143.713 82.3883L137.852 83.9586C126.65 86.9606 120.001 98.4756 123.003 109.678L125.942 120.648L122.833 121.481L122.151 118.933C119.149 107.73 107.634 101.082 96.431 104.084L90.5647 105.656L89.6636 102.293L95.5299 100.721C106.733 97.7192 113.381 86.2041 110.379 75.0013L107.379 63.8054L110.49 62.9719L111.318 66.063Z" fill="black"/>
<path d="M441.058 100.116C438.81 90.6452 433.242 82.2934 425.364 76.5758C417.486 70.8581 407.82 68.1532 398.119 68.9517C388.417 69.7502 379.323 73.9991 372.486 80.9279C365.649 87.8567 361.521 97.0065 360.852 106.718C360.183 116.429 363.016 126.058 368.838 133.859C374.661 141.661 383.086 147.117 392.586 149.239C402.086 151.36 412.032 150.007 420.62 145.424C429.208 140.841 435.869 133.332 439.395 124.258C439.431 124.143 439.44 124.02 439.42 123.901C439.4 123.781 439.353 123.668 439.281 123.57C439.21 123.472 439.116 123.392 439.008 123.337C438.9 123.282 438.781 123.253 438.659 123.253H422.913C422.661 123.247 422.415 123.329 422.216 123.485V123.678C421.636 124.491 421.017 125.264 420.398 126C419.661 126.834 418.872 127.622 418.038 128.36L417.187 129.056C416.607 129.52 415.987 129.946 415.368 130.371C414.749 130.797 414.13 131.145 413.473 131.532L412.119 132.19L410.726 132.77L409.449 133.234L408.056 133.621L406.586 133.931C406.142 134.048 405.689 134.126 405.232 134.163H404.845H403.994H403.297H400.705C399.694 134.117 398.687 134.014 397.687 133.853C397.146 133.853 396.604 133.853 396.101 133.505C395.947 133.523 395.791 133.523 395.637 133.505L393.973 133.002C393.627 132.921 393.29 132.804 392.967 132.654L392.116 132.306L391.226 131.919L390.375 131.493C389.003 130.729 387.708 129.835 386.506 128.824C385.989 128.43 385.498 128.004 385.036 127.547C382.052 124.755 379.798 121.273 378.472 117.408C377.146 113.542 376.788 109.41 377.429 105.374C378.071 101.338 379.692 97.5208 382.151 94.2569C384.611 90.9929 387.833 88.3818 391.536 86.6524C392.713 86.1014 393.928 85.6359 395.173 85.2595L396.565 84.9113L398.074 84.6405H398.925H399.158H400.009H403.336C405.089 84.7145 406.829 84.9871 408.52 85.453L409.333 85.6851L409.952 85.8786C410.286 85.96 410.61 86.0767 410.919 86.2268C411.461 86.4128 411.991 86.6325 412.505 86.8845C412.911 87.0387 413.3 87.2332 413.666 87.4648L414.401 87.8517L415.252 88.316C415.794 88.6642 416.336 89.0124 416.839 89.3993L417.612 89.9797L418.309 90.5987L418.967 91.2177C419.225 91.4073 419.459 91.6282 419.663 91.8754L420.321 92.5332L420.978 93.2683C421.704 94.1153 422.376 95.0069 422.99 95.9378L423.648 97.0211C423.804 97.2708 423.947 97.5291 424.074 97.7949L424.615 98.8782C424.78 99.1633 424.922 99.4608 425.041 99.7681L425.312 100.503C425.312 100.851 425.582 101.238 425.737 101.586H385.732C385.28 101.587 384.839 101.729 384.471 101.992C384.103 102.256 383.827 102.628 383.682 103.057C382.918 105.139 382.526 107.339 382.521 109.556C382.526 111.676 382.879 113.78 383.566 115.785C383.713 116.22 383.995 116.597 384.371 116.861C384.746 117.126 385.196 117.264 385.655 117.256H440.787C441.009 117.259 441.225 117.182 441.395 117.041C441.565 116.899 441.679 116.7 441.716 116.482C442.624 111.04 442.4 105.468 441.058 100.116Z" fill="black"/>
<path d="M441.366 101.51H385.731C385.278 101.51 384.837 101.652 384.469 101.916C384.102 102.179 383.826 102.551 383.68 102.98C382.924 105.064 382.531 107.263 382.52 109.48C382.524 111.599 382.877 113.704 383.564 115.709C383.717 116.14 384 116.514 384.374 116.777C384.749 117.041 385.196 117.181 385.653 117.179H440.786C441.007 117.182 441.223 117.106 441.393 116.964C441.564 116.822 441.677 116.624 441.714 116.405C442.526 111.462 442.408 106.41 441.366 101.51Z" fill="black"/>
<path d="M528.146 100.116C525.898 90.6452 520.33 82.2934 512.452 76.5758C504.574 70.8581 494.908 68.1532 485.206 68.9517C475.505 69.7502 466.411 73.9991 459.574 80.9279C452.737 87.8567 448.609 97.0065 447.94 106.718C447.271 116.429 450.104 126.058 455.926 133.859C461.748 141.661 470.174 147.117 479.674 149.239C489.174 151.36 499.12 150.007 507.708 145.424C516.296 140.841 522.957 133.332 526.482 124.258C526.527 124.146 526.543 124.024 526.529 123.904C526.516 123.784 526.472 123.669 526.404 123.569C526.335 123.47 526.242 123.389 526.134 123.333C526.027 123.278 525.907 123.25 525.786 123.253H510.001C509.75 123.253 509.505 123.334 509.304 123.485V123.678C508.754 124.494 508.146 125.27 507.486 126C506.749 126.834 505.96 127.622 505.126 128.36L504.275 129.056L502.495 130.371C501.876 130.797 501.218 131.145 500.561 131.532L499.206 132.19L497.852 132.77L496.576 133.234H496.382L495.028 133.621L493.558 133.931C493.114 134.048 492.661 134.126 492.204 134.163H491.817H491.004H490.308H487.716C486.692 134.119 485.671 134.016 484.659 133.853L483.073 133.505H482.647L480.945 133.002L479.939 132.654L479.088 132.306L478.237 131.919L477.347 131.493C475.913 130.731 474.553 129.837 473.285 128.824C472.767 128.43 472.276 128.004 471.814 127.547C468.83 124.755 466.576 121.273 465.25 117.408C463.924 113.542 463.566 109.41 464.208 105.374C464.849 101.338 466.47 97.5208 468.93 94.2569C471.389 90.9929 474.611 88.3818 478.314 86.6524C479.494 86.1082 480.709 85.6429 481.951 85.2595L483.382 84.9113L484.853 84.6405H485.704H485.936H486.787H490.114C491.868 84.7098 493.608 84.9824 495.299 85.453L496.111 85.6851L496.73 85.8786C497.066 85.9536 497.391 86.0706 497.698 86.2268C498.242 86.4066 498.772 86.6264 499.284 86.8845C499.698 87.0463 500.099 87.2404 500.483 87.4648L501.218 87.8517L502.031 88.316C502.572 88.6642 503.114 89.0124 503.617 89.3993L504.391 89.9797L505.126 90.5987L505.822 91.2177L505.832 91.2144C506.489 91.8721 506.489 91.8721 507.147 92.5298L507.795 93.2683C508.533 94.1056 509.206 94.9981 509.807 95.9378L510.465 97.0211C510.622 97.2708 510.764 97.5291 510.891 97.7949C510.891 98.1431 511.278 98.53 511.432 98.8782C511.597 99.1633 511.739 99.4608 511.858 99.7681C511.858 100 511.858 100.271 512.167 100.503L512.554 101.586H473.091C472.641 101.598 472.205 101.744 471.84 102.006C471.474 102.268 471.196 102.634 471.041 103.057C470.29 105.141 469.91 107.341 469.919 109.556C469.903 111.678 470.257 113.785 470.963 115.785C471.103 116.217 471.378 116.593 471.747 116.857C472.116 117.122 472.56 117.261 473.014 117.256H527.991C528.213 117.259 528.428 117.182 528.599 117.041C528.769 116.899 528.883 116.7 528.92 116.482C529.79 111.032 529.527 105.46 528.146 100.116Z" fill="black"/>
<path d="M528.457 101.51H472.821C472.374 101.512 471.939 101.656 471.578 101.92C471.217 102.184 470.948 102.555 470.809 102.98C470.031 105.058 469.637 107.261 469.649 109.48C469.636 111.601 469.99 113.708 470.693 115.709C470.834 116.141 471.108 116.516 471.477 116.781C471.846 117.045 472.29 117.185 472.744 117.179H527.722C527.943 117.182 528.159 117.106 528.329 116.964C528.499 116.822 528.613 116.624 528.65 116.405C529.512 111.471 529.447 106.42 528.457 101.51Z" fill="black"/>
<path d="M909.625 67.7721C909.789 67.6685 909.974 67.6024 910.167 67.5787C910.369 67.5206 910.583 67.5206 910.786 67.5787C910.954 67.6757 911.099 67.8076 911.211 67.9656C911.246 68.1575 911.246 68.354 911.211 68.5459V146.66C911.23 146.801 911.23 146.944 911.211 147.085L910.979 147.434C910.875 147.546 910.741 147.626 910.592 147.666C910.453 147.706 910.306 147.706 910.167 147.666H896.664H896.239C896.106 147.616 895.987 147.537 895.89 147.434C895.779 147.344 895.698 147.223 895.658 147.085C895.622 146.946 895.622 146.799 895.658 146.66V141.708C889.632 146.406 882.405 149.314 874.805 150.101C867.204 150.888 859.535 149.521 852.674 146.157C847.541 143.65 842.992 140.092 839.321 135.714C835.651 131.337 832.941 126.237 831.368 120.745C829.795 115.253 829.393 109.491 830.189 103.834C830.984 98.1772 832.96 92.7504 835.987 87.9056C839.015 83.0608 843.026 78.9062 847.762 75.7109C852.498 72.5157 857.852 70.3511 863.478 69.3576C869.103 68.364 874.875 68.5636 880.419 69.9434C885.963 71.3232 891.155 73.8524 895.658 77.3671L909.625 67.7721ZM811.586 130.797C813.501 130.805 815.372 131.378 816.962 132.446C818.552 133.513 819.791 135.027 820.523 136.797C821.255 138.567 821.447 140.514 821.075 142.392C820.704 144.271 819.785 145.998 818.434 147.356C817.073 148.703 815.346 149.62 813.468 149.991C811.589 150.363 809.643 150.173 807.872 149.446C806.098 148.711 804.578 147.474 803.5 145.886C802.448 144.275 801.883 142.394 801.875 140.47C801.872 139.145 802.121 137.832 802.61 136.601C803.104 135.434 803.813 134.371 804.699 133.467C805.608 132.567 806.686 131.856 807.872 131.378C809.058 130.935 810.321 130.738 811.586 130.797ZM939.261 71.3316C939.413 71.3316 939.563 71.3624 939.703 71.4223C939.843 71.4821 939.969 71.5697 940.074 71.6798C940.174 71.7819 940.253 71.9029 940.306 72.0357C940.359 72.1685 940.385 72.3105 940.383 72.4536V146.66C940.379 146.947 940.269 147.223 940.074 147.434C939.969 147.544 939.843 147.631 939.703 147.691C939.563 147.751 939.413 147.782 939.261 147.782H925.759C925.473 147.74 925.205 147.62 924.985 147.434C924.789 147.223 924.679 146.947 924.675 146.66V72.4536C924.673 72.3105 924.7 72.1685 924.753 72.0357C924.806 71.9029 924.885 71.7819 924.985 71.6798C925.09 71.5697 925.216 71.4821 925.355 71.4223C925.495 71.3624 925.645 71.3316 925.797 71.3316H939.261ZM870.433 84.2925C865.47 84.2923 860.62 85.7742 856.504 88.5484C853.448 90.6208 850.888 93.3427 849.005 96.5197C847.123 99.6966 845.966 103.25 845.617 106.926C845.267 110.602 845.734 114.31 846.984 117.785C848.234 121.259 850.236 124.415 852.847 127.026C855.458 129.637 858.614 131.639 862.089 132.889C865.563 134.139 869.271 134.606 872.947 134.257C876.623 133.907 880.177 132.75 883.354 130.868C886.531 128.986 889.253 126.425 891.325 123.369C893.844 119.59 895.291 115.199 895.512 110.663C895.733 106.127 894.72 101.615 892.58 97.6096C890.44 93.6038 887.254 90.2534 883.361 87.9151C879.467 85.5768 875.013 84.3382 870.471 84.3312L870.433 84.2925ZM932.336 38.5616C934.254 38.5324 936.133 39.1003 937.714 40.1866C939.319 41.2395 940.572 42.7499 941.31 44.5225C942.048 46.2951 942.237 48.2484 941.853 50.1298C941.476 52.001 940.562 53.7218 939.222 55.082C937.851 56.4348 936.118 57.3619 934.232 57.7516C932.35 58.1357 930.397 57.9465 928.624 57.2084C926.852 56.4704 925.341 55.2175 924.288 53.6118C923.216 52.0246 922.649 50.1496 922.663 48.234C922.663 46.9656 922.914 45.7097 923.4 44.5384C923.887 43.367 924.6 42.3033 925.499 41.4082C926.397 40.5132 927.464 39.8043 928.637 39.3225C929.81 38.8406 931.067 38.5952 932.336 38.6003V38.5616Z" fill="black"/>
<path d="M775.296 74.0013C774.956 73.9962 774.627 73.8732 774.368 73.6531C774.126 73.4264 773.963 73.128 773.903 72.8019C773.59 70.9796 772.934 69.2333 771.969 67.6562C770.951 66.1208 769.635 64.8052 768.1 63.7873C764.132 61.1965 759.447 59.9238 754.713 60.1505C751.316 60.0675 747.937 60.6593 744.77 61.8915C742.254 62.8772 740.059 64.5372 738.425 66.689C736.969 68.6758 736.184 71.0741 736.181 73.537C736.113 75.5003 736.595 77.4436 737.574 79.147C738.666 80.7141 740.076 82.0326 741.714 83.0159C743.499 84.135 745.407 85.0438 747.401 85.7242C749.452 86.4593 751.541 87.0783 753.669 87.62L763.264 90.0187C767.061 90.973 770.764 92.2679 774.329 93.8876C777.814 95.3652 781.071 97.3324 784.001 99.7297C786.999 102.146 789.397 105.222 791.008 108.719C792.619 112.216 793.399 116.038 793.287 119.887C793.412 125.545 791.805 131.107 788.683 135.827C785.363 140.59 780.742 144.296 775.373 146.505C768.754 149.233 761.639 150.551 754.481 150.374C747.367 150.489 740.301 149.173 733.705 146.505C728.196 144.262 723.444 140.489 720.009 135.634C716.87 130.871 715.066 125.352 714.786 119.655C714.746 119.476 714.746 119.291 714.786 119.113C714.828 118.935 714.923 118.774 715.057 118.649C715.186 118.568 715.331 118.515 715.482 118.494C715.661 118.458 715.845 118.458 716.024 118.494H731.5C731.843 118.485 732.176 118.61 732.428 118.842C732.689 119.075 732.866 119.388 732.931 119.732C733.216 122.551 734.289 125.232 736.026 127.47C738.071 129.921 740.747 131.767 743.764 132.809C747.127 134.015 750.677 134.618 754.249 134.589C757.867 134.668 761.466 134.051 764.85 132.771C767.661 131.719 770.153 129.96 772.085 127.663C773.818 125.457 774.759 122.731 774.754 119.926C774.807 117.482 773.968 115.103 772.394 113.232C770.601 111.294 768.392 109.786 765.933 108.822C762.822 107.497 759.614 106.41 756.338 105.572L744.731 102.593C737.34 100.94 730.462 97.5141 724.69 92.6109C722.252 90.372 720.336 87.6238 719.079 84.5614C717.822 81.4991 717.255 78.1975 717.417 74.8911C717.29 69.1925 718.999 63.6043 722.292 58.9511C725.752 54.2779 730.401 50.6173 735.756 48.3502C741.852 45.6896 748.449 44.3702 755.1 44.4812C761.691 44.345 768.23 45.6661 774.251 48.3502C779.446 50.6182 783.926 54.2557 787.212 58.8737C790.081 63.0061 791.743 67.8558 792.01 72.8793C792.05 73.0576 792.05 73.2426 792.01 73.4209C791.967 73.599 791.873 73.7605 791.739 73.8852C791.636 74.0327 791.486 74.1416 791.314 74.1947C791.135 74.2312 790.951 74.2312 790.772 74.1947L775.296 74.0013Z" fill="black"/>
<path d="M337.022 73.9623C336.678 73.9752 336.34 73.8597 336.076 73.6381C335.811 73.4165 335.639 73.1047 335.591 72.763C335.32 70.9417 334.66 69.2 333.656 67.656C332.651 66.1101 331.333 64.7921 329.788 63.787C325.803 61.1964 321.111 59.9117 316.362 60.1115C312.975 60.0419 309.609 60.6469 306.458 61.8913C303.938 62.8706 301.732 64.5153 300.074 66.65C298.63 68.6572 297.845 71.064 297.83 73.5368C297.781 75.4908 298.276 77.4199 299.262 79.108C300.357 80.6722 301.767 81.99 303.401 82.977C305.187 84.0951 307.095 85.0039 309.089 85.6852C311.127 86.4262 313.207 87.0464 315.318 87.5423L324.951 89.9798C328.74 90.8642 332.442 92.0812 336.017 93.6166C339.487 95.1002 342.73 97.067 345.65 99.4587C348.662 101.865 351.072 104.939 352.691 108.437C354.309 111.936 355.091 115.763 354.974 119.616C355.08 125.272 353.475 130.827 350.37 135.556C347.027 140.306 342.415 144.02 337.061 146.273C330.435 148.979 323.324 150.296 316.169 150.142C309.054 150.26 301.988 148.944 295.393 146.273C289.866 144.079 285.105 140.312 281.697 135.44C278.533 130.674 276.728 125.137 276.473 119.422C276.436 119.244 276.436 119.059 276.473 118.881C276.549 118.718 276.64 118.563 276.744 118.417C276.883 118.291 277.04 118.187 277.209 118.107C277.372 118.051 277.549 118.051 277.712 118.107H293.187C293.357 118.1 293.527 118.127 293.687 118.187C293.846 118.247 293.992 118.338 294.116 118.455C294.249 118.564 294.359 118.7 294.439 118.853C294.519 119.006 294.567 119.173 294.58 119.345C294.896 122.163 295.98 124.839 297.714 127.083C299.744 129.551 302.424 131.4 305.452 132.422C308.822 133.65 312.389 134.253 315.975 134.202C319.59 134.288 323.188 133.684 326.576 132.422C329.397 131.37 331.892 129.596 333.811 127.276C335.52 125.059 336.445 122.338 336.442 119.539C336.518 117.103 335.676 114.727 334.082 112.884C332.305 110.917 330.092 109.393 327.621 108.435C324.513 107.111 321.305 106.037 318.026 105.223L306.419 102.206C299.028 100.574 292.148 97.1609 286.378 92.2624C283.934 90.0179 282.012 87.2642 280.749 84.1957C279.485 81.1272 278.911 77.8188 279.066 74.504C278.959 68.8022 280.681 63.2161 283.979 58.564C287.504 53.8932 292.222 50.258 297.637 48.0404C303.733 45.3799 310.33 44.0604 316.981 44.1715C323.56 44.0294 330.088 45.3509 336.094 48.0404C341.28 50.3217 345.757 53.9566 349.055 58.564C351.953 62.6959 353.617 67.5666 353.852 72.6082C353.891 72.7867 353.891 72.9714 353.852 73.1499C353.777 73.3127 353.686 73.4681 353.582 73.6141C353.443 73.7392 353.286 73.8435 353.117 73.9237C352.951 73.9592 352.78 73.9592 352.614 73.9237L337.022 73.9623Z" fill="black"/>
<path d="M692.267 95.2808C692.367 90.7285 691.552 86.2024 689.868 81.9716C688.185 77.7362 685.671 73.8804 682.475 70.6312C679.279 67.3821 675.466 64.8052 671.258 63.0525C667.049 61.2914 662.532 60.3845 657.969 60.3845C653.406 60.3845 648.888 61.2914 644.679 63.0525C640.466 64.8675 636.653 67.4972 633.459 70.7904C630.289 74.0209 627.795 77.8502 626.121 82.055C624.447 86.2598 623.627 90.7558 623.709 95.2808V99.1497C623.617 103.697 624.435 108.216 626.116 112.442C627.797 116.668 630.307 120.515 633.498 123.756C638.299 128.662 644.463 132.012 651.191 133.375C657.919 134.737 664.901 134.048 671.233 131.397C677.564 128.746 682.954 124.255 686.705 118.505C690.455 112.756 692.393 106.013 692.267 99.1497V95.2808ZM709.097 99.1497C708.731 112.456 703.187 125.095 693.646 134.377C684.105 143.659 671.319 148.852 658.007 148.852C644.696 148.852 631.91 143.659 622.369 134.377C612.827 125.095 607.284 112.456 606.918 99.1497V95.2808C607.284 81.9744 612.827 69.336 622.369 60.0538C631.91 50.7716 644.696 45.5781 658.007 45.5781C671.319 45.5781 684.105 50.7716 693.646 60.0538C703.187 69.336 708.731 81.9744 709.097 95.2808V99.1497Z" fill="black"/>
<path d="M571.867 68.8164C567.869 68.8126 563.913 69.6316 560.246 71.2224C556.578 72.8132 553.278 75.1418 550.549 78.0632V72.3758C550.53 72.0843 550.406 71.8094 550.2 71.6028C549.993 71.3962 549.718 71.2721 549.427 71.2539H536.118C535.966 71.2539 535.815 71.2847 535.676 71.3446C535.536 71.4044 535.41 71.492 535.305 71.6021C535.205 71.7042 535.126 71.8252 535.073 71.958C535.02 72.0908 534.994 72.2328 534.996 72.3758V146.582C534.981 146.724 534.981 146.866 534.996 147.008L535.228 147.356C535.342 147.456 535.473 147.534 535.615 147.588H536.04H549.349H549.775L550.123 147.356L550.394 147.008C550.409 146.866 550.409 146.724 550.394 146.582V102.631C550.357 98.1293 552.016 93.7786 555.042 90.4449C558.067 87.1112 562.237 85.0389 566.721 84.6404C569.097 84.4772 571.481 84.8065 573.724 85.6076C575.993 86.4659 578.061 87.783 579.798 89.4766C581.528 91.1181 582.909 93.0912 583.859 95.2781C584.81 97.465 585.31 99.8209 585.331 102.205V146.466C585.291 146.605 585.291 146.753 585.331 146.892C585.37 147.04 585.45 147.174 585.563 147.279L585.911 147.511H586.336H599.684H600.11L600.458 147.279C600.571 147.174 600.651 147.04 600.69 146.892C600.712 146.751 600.712 146.607 600.69 146.466V98.0269C600.7 94.1946 599.954 90.3979 598.495 86.8544C597.035 83.3109 594.891 80.0901 592.185 77.3767C589.478 74.6632 586.263 72.5103 582.724 71.0414C579.184 69.5725 575.389 68.8164 571.557 68.8164H571.867Z" fill="black"/>
</svg>
